<svg width="32" height="32" viewBox="0 0 130 196" fill="none" xmlns="http://www.w3.org/2000/svg">
<path d="M68.1234 139.302H61.6814V195.638H68.1234V139.302Z" fill="#242424"/>
<path d="M54.3133 43.3253L31.0716 8.73657L25.7244 12.3155L46.545 43.3253H54.3133Z" fill="#242424"/>
<path d="M43.3449 46.631L12.2297 25.8525L8.65088 31.2208L43.3449 54.3572V46.631Z" fill="#242424"/>
<path d="M72.4391 43.3255L80.6916 1.24207L74.376 0L65.8708 43.3255H72.4391Z" fill="#242424"/>
<path d="M83.1967 43.3261L103.954 12.2109L98.5859 8.63208L75.4495 43.3261H83.1967Z" fill="#242424"/>
<path d="M43.3449 57.3679L1.2616 49.1155L0.0195312 55.4311L43.3449 63.9362V57.3679Z" fill="#242424"/>
<path d="M86.502 63.8727L129.785 55.2412L128.522 48.9255L86.502 57.3044V63.8727Z" fill="#242424"/>
<path d="M86.502 54.2727L121.091 31.052L117.491 25.7048L86.502 46.5255V54.2727Z" fill="#242424"/>
<path d="M63.8919 43.3258L55.2605 0.0424805L48.9448 1.30556L57.3236 43.3258H63.8919Z" fill="#242424"/>
<path d="M86.502 83.1779L117.596 103.935L121.175 98.567L86.502 75.4307V83.1779Z" fill="#242424"/>
<path d="M75.5337 86.4829L98.7543 121.051L104.102 117.472L83.302 86.4829H75.5337Z" fill="#242424"/>
<path d="M86.502 65.8518V72.4201L128.564 80.6725L129.806 74.3568L86.502 65.8518Z" fill="#242424"/>
<path d="M65.9341 86.4829L74.5655 129.745L80.8812 128.503L72.5024 86.4829H65.9341Z" fill="#242424"/>
<path d="M43.3448 75.5144L8.7561 98.735L12.335 104.082L43.3448 83.2616V75.5144Z" fill="#242424"/>
<path d="M43.345 65.9148L0.0617676 74.5463L1.32488 80.8619L43.345 72.4831V65.9148Z" fill="#242424"/>
<path d="M46.6501 86.4829L25.8716 117.577L31.2399 121.156L54.3973 86.4829H46.6501Z" fill="#242424"/>
<path d="M57.3868 86.4829L49.1343 128.545L55.4499 129.787L63.955 86.4829H57.3868Z" fill="#242424"/>
<path d="M64.9233 79.5567C73.0156 79.5567 79.5757 72.9966 79.5757 64.9043C79.5757 56.8121 73.0156 50.252 64.9233 50.252C56.831 50.252 50.271 56.8121 50.271 64.9043C50.271 72.9966 56.831 79.5567 64.9233 79.5567Z" fill="#242424"/>
<path d="M76.839 187.849C87.6809 190.186 96.3545 185.786 99.5754 174.754C101.681 167.533 101.723 163.702 105.533 159.302C103.323 159.365 99.3859 159.281 97.6175 159.428C88.1651 160.249 82.4179 160.481 76.2917 166.67C71.176 171.87 71.7655 181.217 74.776 186.523C78.2706 178.46 82.1232 171.597 90.6914 168.502C81.9758 173.933 79.3022 180.986 76.818 187.849H76.839Z" fill="#242424"/>
<path d="M43.5133 149.514C49.3448 151.619 51.9552 156.271 54.3341 161.766C56.3762 158.166 56.7972 151.787 53.3026 148.271C49.1342 144.061 45.2185 143.914 38.7976 143.345C37.5976 143.24 34.924 143.303 33.4082 143.261C35.9976 146.271 36.0398 148.861 37.4713 153.766C39.6608 161.261 45.5554 164.25 52.9236 162.671C51.2395 157.998 49.4079 153.198 43.4922 149.514H43.5133Z" fill="#242424"/>
</svg>
