<svg width="191" height="91" viewBox="0 0 191 91" fill="none" xmlns="http://www.w3.org/2000/svg">
<path d="M12.4263 0L24.2479 48.603V0H36.7912V90.632H25.5841L12.4263 38.4884V90.632H0V0H12.4263Z" fill="#fff"/>
<path d="M77.3572 0V13.1578H59.8102V36.918H73.5727V50.6806H59.8102V76.8694H78.079V90.632H46.0378V0H77.3474H77.3572Z" fill="#fff"/>
<path d="M85.1504 0H99.1568L105.009 28.6273L110.617 0H124.019L113.661 42.146L125.355 90.632H111.105L104.287 57.8594L97.3426 90.632H83.4532L95.3918 42.146L85.1602 0H85.1504Z" fill="#fff"/>
<path d="M162.108 64.9014H159.123V91.0025H162.108V64.9014Z" fill="#fff"/>
<path d="M155.709 20.4341L144.941 4.40869L142.464 6.06684L152.11 20.4341H155.709Z" fill="#fff"/>
<path d="M150.627 21.9656L136.211 12.3386L134.553 14.8258L150.627 25.5452V21.9656Z" fill="#fff"/>
<path d="M164.107 20.4341L167.931 0.936308L165.004 0.36084L161.064 20.4341H164.107Z" fill="#fff"/>
<path d="M169.091 20.4345L178.709 6.01844L176.221 4.36035L165.502 20.4345H169.091Z" fill="#fff"/>
<path d="M150.627 26.9399L131.13 23.1165L130.554 26.0426L150.627 29.9831V26.9399Z" fill="#fff"/>
<path d="M170.623 29.9538L190.676 25.9547L190.091 23.0286L170.623 26.9106V29.9538Z" fill="#fff"/>
<path d="M170.623 25.5059L186.648 14.7475L184.98 12.27L170.623 21.9165V25.5059Z" fill="#fff"/>
<path d="M160.147 20.4341L156.148 0.380371L153.222 0.965573L157.104 20.4341H160.147Z" fill="#fff"/>
<path d="M170.623 38.8982L185.029 48.5154L186.687 46.0282L170.623 35.3088V38.8982Z" fill="#fff"/>
<path d="M165.541 40.4297L176.299 56.4454L178.777 54.7872L169.14 40.4297H165.541Z" fill="#fff"/>
<path d="M170.623 30.8708V33.914L190.111 37.7375L190.686 34.8113L170.623 30.8708Z" fill="#fff"/>
<path d="M161.093 40.4297L165.092 60.4737L168.018 59.8982L164.136 40.4297H161.093Z" fill="#fff"/>
<path d="M150.627 35.3477L134.602 46.1061L136.26 48.5835L150.627 38.937V35.3477Z" fill="#fff"/>
<path d="M150.627 30.9001L130.574 34.8992L131.159 37.8254L150.627 33.9433V30.9001Z" fill="#fff"/>
<path d="M152.159 40.4297L142.532 54.836L145.019 56.4941L155.748 40.4297H152.159Z" fill="#fff"/>
<path d="M157.133 40.4297L153.31 59.9177L156.236 60.4932L160.176 40.4297H157.133Z" fill="#fff"/>
<path d="M160.625 37.2206C164.374 37.2206 167.414 34.1812 167.414 30.432C167.414 26.6827 164.374 23.6433 160.625 23.6433C156.876 23.6433 153.836 26.6827 153.836 30.432C153.836 34.1812 156.876 37.2206 160.625 37.2206Z" fill="#fff"/>
<path d="M166.146 87.3936C171.169 88.4763 175.187 86.4377 176.68 81.3268C177.655 77.9812 177.675 76.206 179.44 74.1675C178.416 74.1967 176.592 74.1577 175.773 74.226C171.393 74.6064 168.73 74.7137 165.892 77.5813C163.522 79.9905 163.795 84.3212 165.19 86.7792C166.809 83.0435 168.594 79.8637 172.564 78.4299C168.526 80.9464 167.287 84.2139 166.136 87.3936H166.146Z" fill="#fff"/>
<path d="M150.706 69.6325C153.407 70.6079 154.617 72.7635 155.719 75.3092C156.665 73.6413 156.86 70.6859 155.241 69.057C153.31 67.1062 151.496 67.038 148.521 66.7746C147.965 66.7259 146.726 66.7551 146.024 66.7356C147.223 68.1304 147.243 69.3301 147.906 71.6028C148.921 75.0751 151.652 76.4601 155.065 75.7286C154.285 73.5633 153.437 71.3394 150.696 69.6325H150.706Z" fill="#fff"/>
</svg>
